<svg width="65" height="17" viewBox="0 0 65 17" fill="none" xmlns="http://www.w3.org/2000/svg">
<path d="M4.90918 16H0.612305L6.13379 0.294922H11.2578L16.7148 16H12.3428L11.2578 12.541H5.9834L4.90918 16ZM6.97168 9.36133H10.2695L8.64746 4.09766H8.60449L6.97168 9.36133ZM16.8545 4.62402H18.4873C18.5016 4.02246 18.5482 3.50684 18.627 3.07715C18.7057 2.64746 18.8382 2.25 19.0244 1.88477C19.2178 1.51237 19.472 1.21517 19.7871 0.993164C20.1022 0.771159 20.5033 0.599284 20.9902 0.477539C21.4844 0.355794 22.0716 0.294922 22.752 0.294922H24.2236V3.08789H23.8691C23.2747 3.08789 22.8916 3.18815 22.7197 3.38867C22.5479 3.58203 22.4548 3.99382 22.4404 4.62402H24.4277V7.48145H22.4404V16H18.4873V7.48145H16.8545V4.62402ZM29.6055 4.62402V6.2998C29.9635 5.6123 30.4362 5.12891 31.0234 4.84961C31.6107 4.56315 32.3053 4.40202 33.1074 4.36621V8.08301C31.9258 8.08301 31.1846 8.16178 30.8838 8.31934C30.7048 8.41243 30.5579 8.50911 30.4434 8.60938C30.3359 8.70247 30.2178 8.85286 30.0889 9.06055C29.9671 9.26107 29.8776 9.54395 29.8203 9.90918C29.763 10.2673 29.7344 10.7077 29.7344 11.2305V16H25.7812V4.62402H29.6055ZM38.3604 3.5498H34.3105V0.294922H38.3604V3.5498ZM34.3105 16V4.62402H38.2637V16H34.3105ZM52.1963 11.7568C52.1247 12.4945 51.9134 13.1676 51.5625 13.7764C51.2116 14.3779 50.7712 14.8685 50.2412 15.248C49.7113 15.6204 49.124 15.9069 48.4795 16.1074C47.835 16.3151 47.1725 16.4189 46.4922 16.4189C45.6973 16.4189 44.9274 16.2865 44.1826 16.0215C43.4378 15.7637 42.7575 15.3913 42.1416 14.9043C41.5329 14.4102 41.0423 13.7656 40.6699 12.9707C40.2975 12.1758 40.1113 11.2878 40.1113 10.3066C40.1113 9.50456 40.2331 8.76335 40.4766 8.08301C40.7201 7.40267 41.0459 6.82975 41.4541 6.36426C41.8695 5.89876 42.3529 5.50488 42.9043 5.18262C43.4557 4.85319 44.0322 4.61328 44.6338 4.46289C45.2425 4.30534 45.862 4.22656 46.4922 4.22656C47.0221 4.22656 47.5413 4.28743 48.0498 4.40918C48.5654 4.52376 49.056 4.70638 49.5215 4.95703C49.9941 5.20052 50.4167 5.49772 50.7891 5.84863C51.1615 6.19954 51.473 6.62565 51.7236 7.12695C51.9743 7.62109 52.1318 8.1582 52.1963 8.73828H48.6084C48.3219 7.75716 47.6237 7.2666 46.5137 7.2666C45.7546 7.2666 45.1423 7.56022 44.6768 8.14746C44.2184 8.72754 43.9893 9.45443 43.9893 10.3281C43.9893 11.209 44.2184 11.943 44.6768 12.5303C45.1423 13.1104 45.7546 13.4004 46.5137 13.4004C46.7214 13.4004 46.9326 13.3717 47.1475 13.3145C47.3695 13.2572 47.5879 13.1712 47.8027 13.0566C48.0176 12.9349 48.2002 12.763 48.3506 12.541C48.5081 12.319 48.6084 12.0576 48.6514 11.7568H52.1963ZM53.8721 8.19043C54.0654 7.00163 54.6276 6.03841 55.5586 5.30078C56.4967 4.55599 57.6891 4.18359 59.1357 4.18359C59.7087 4.18359 60.2422 4.23372 60.7363 4.33398C61.2305 4.43424 61.7103 4.61328 62.1758 4.87109C62.6413 5.12174 63.0387 5.44401 63.3682 5.83789C63.6976 6.23177 63.959 6.74382 64.1523 7.37402C64.3529 7.99707 64.4531 8.70964 64.4531 9.51172V12.6162C64.4531 14.3063 64.5283 15.4342 64.6787 16H60.8438C60.7865 15.7995 60.7578 15.5488 60.7578 15.248V14.7217H60.7363C60.4427 15.2445 60.0381 15.6491 59.5225 15.9355C59.014 16.2148 58.2979 16.3545 57.374 16.3545C56.2425 16.3545 55.2972 16.0501 54.5381 15.4414C53.7861 14.8327 53.4102 13.984 53.4102 12.8955C53.4102 12.4801 53.4746 12.097 53.6035 11.7461C53.7396 11.3952 53.9043 11.1016 54.0977 10.8652C54.291 10.6217 54.5381 10.4033 54.8389 10.21C55.1468 10.0094 55.4297 9.85547 55.6875 9.74805C55.9453 9.63346 56.2533 9.52962 56.6113 9.43652C56.9694 9.33626 57.2487 9.26823 57.4492 9.23242C57.6497 9.19661 57.8896 9.15723 58.1689 9.11426C58.3265 9.09277 58.5199 9.06771 58.749 9.03906C58.9782 9.01042 59.1572 8.98893 59.2861 8.97461C59.415 8.95312 59.5618 8.92806 59.7266 8.89941C59.8984 8.87077 60.0273 8.83496 60.1133 8.79199C60.2064 8.74902 60.2959 8.69531 60.3818 8.63086C60.4749 8.56641 60.5394 8.48405 60.5752 8.38379C60.611 8.28353 60.6289 8.16895 60.6289 8.04004C60.6289 7.66048 60.4785 7.3776 60.1777 7.19141C59.877 7.00521 59.5225 6.91211 59.1143 6.91211C58.1833 6.91211 57.6318 7.33822 57.46 8.19043H53.8721ZM57.374 12.5947C57.374 13.2965 57.8359 13.6475 58.7598 13.6475C59.3255 13.6475 59.7874 13.4183 60.1455 12.96C60.5107 12.4945 60.6934 11.7389 60.6934 10.6934V10.3926C60.5573 10.6504 60.346 10.8545 60.0596 11.0049C59.7803 11.1481 59.4186 11.2663 58.9746 11.3594C58.3516 11.5026 57.929 11.6745 57.707 11.875C57.485 12.0755 57.374 12.3154 57.374 12.5947Z" fill="white"/>
</svg>
