<svg width="257" height="154" viewBox="0 0 257 154" fill="none" xmlns="http://www.w3.org/2000/svg">
<path d="M121.81 100.379C121.81 95.1028 126.088 90.8296 131.363 90.8296C136.638 90.8296 140.916 95.1028 140.916 100.379C140.916 105.651 136.638 109.929 131.363 109.929C126.088 109.929 121.81 105.651 121.81 100.379C121.81 100.358 121.81 100.346 121.81 100.325V100.379ZM131.363 112.552C138.086 112.552 143.539 107.102 143.539 100.379C143.539 93.6563 138.086 88.2059 131.363 88.2059C124.636 88.2059 119.187 93.6563 119.187 100.379C119.216 107.081 124.656 112.498 131.363 112.498V112.552ZM53.6937 43.9771C58.9646 43.9771 63.2467 48.2503 63.2467 53.5266C63.2467 58.7988 58.9646 63.072 53.6937 63.072C48.4187 63.072 44.1407 58.7988 44.1407 53.5266C44.1407 48.2503 48.4187 43.9771 53.6937 43.9771ZM53.6937 65.6957C60.4168 65.6957 65.8697 60.2494 65.8697 53.5266C65.8697 46.8038 60.4168 41.3534 53.6937 41.3534C46.9665 41.3534 41.5177 46.8038 41.5177 53.5266C41.5177 60.2494 46.9665 65.6957 53.6937 65.6957ZM209.032 43.9232C214.307 43.9522 218.56 48.2503 218.531 53.5266C218.503 58.7988 214.2 63.0513 208.925 63.0223C203.691 62.9933 199.459 58.7573 199.43 53.5266C199.426 48.2503 203.703 43.9771 208.979 43.9771C208.995 43.9771 209.016 43.9771 209.032 43.9771V43.9232ZM209.032 65.6459C215.755 65.6169 221.184 60.1417 221.155 53.4188C221.126 46.7002 215.652 41.2705 208.925 41.2995C202.202 41.3327 196.773 46.8038 196.807 53.5266C196.807 60.2494 202.255 65.6957 208.979 65.6957C208.995 65.6957 209.016 65.6957 209.032 65.6957V65.6459ZM158.495 129.289L178.751 109.038V149.54L158.495 129.289ZM183.211 104.578L209.032 78.7641L230.6 100.325L226.351 104.578H183.211ZM252.697 78.2377L232.437 98.4891L212.181 78.2377H252.697ZM158.495 24.563L178.751 4.3116V44.8143L158.495 24.563ZM252.697 75.6141H209.558L181.375 47.4379V4.3116L252.697 75.6141ZM223.724 107.201L181.375 149.54V107.201H223.724ZM180.22 154H180.642L180.903 153.789L256.789 77.8689V77.8191L256.892 77.6616V77.6077L257 77.3963V76.4016L256.892 76.1902V76.1405L256.789 75.983V75.9291L180.953 0.216564L180.692 0.00932593H180.274C180.15 -0.00310864 180.03 -0.00310864 179.906 0.00932593H179.488L179.223 0.216564L155.818 23.6179C155.318 24.1277 155.318 24.9443 155.818 25.4541L179.223 48.8555L207.142 76.928L179.12 104.942L155.715 128.344C155.214 128.854 155.214 129.67 155.715 130.18L179.12 153.581L179.38 153.789H179.802C179.931 153.876 180.071 153.946 180.22 154ZM80.826 129.289L101.082 109.038V149.54L80.826 129.289ZM175.028 78.2377L103.705 149.54V106.414L131.884 78.2377H175.028ZM105.542 49.2741H148.678L152.931 53.5266L131.363 75.0919L105.542 49.2741ZM80.826 24.563L101.082 4.3116V44.8143L80.826 24.563ZM146.055 46.6504H103.705V4.3116L146.055 46.6504ZM175.028 75.6141H134.511L154.768 55.3627L175.028 75.6141ZM102.551 154H102.973L103.234 153.789L179.12 77.8689V77.8191L179.223 77.6616V77.6077L179.331 77.3963V76.4016L179.223 76.1902V76.1405L179.12 75.983V75.9291L103.337 0.216564L103.076 0.00932593H102.654C102.534 -0.00310864 102.41 -0.00310864 102.29 0.00932593H101.819L101.554 0.216564L78.1492 23.6179C77.6734 24.1402 77.6734 24.936 78.1492 25.4541L101.554 48.8555L129.526 76.928L78.0954 128.344C77.6196 128.866 77.6196 129.662 78.0954 130.18L101.5 153.581L101.765 153.789H102.183C102.299 153.872 102.419 153.946 102.551 154ZM3.15675 129.289L23.4129 109.038V149.54L3.15675 129.289ZM27.9267 104.578L53.7434 78.7641L75.3152 100.325L71.062 104.578H27.9267ZM97.3545 78.2377L77.1521 98.4891L56.896 78.2377H97.4083H97.3545ZM3.15675 24.563L23.4129 4.3116V44.8143L3.15675 24.563ZM97.4083 75.6141H54.2688L26.0897 47.4379V4.3116L97.4083 75.6141ZM68.439 107.201L26.0359 149.54V107.201H68.439ZM24.9354 154H25.3533L25.6139 153.789L101.5 77.8689V77.8191L101.608 77.6616V77.6077L101.711 77.3963V76.4016L101.608 76.1902V76.1405L101.5 75.983V75.9291L25.6677 0.216564L25.4071 0.00932593H24.9354C24.8113 -0.00310864 24.6872 -0.00310864 24.5672 0.00932593H24.1493L23.8846 0.216564L0.372356 23.6179C-0.124119 24.1277 -0.124119 24.9443 0.372356 25.4541L23.8308 48.9093L51.8568 76.928L0.372356 128.394C-0.124119 128.908 -0.124119 129.72 0.372356 130.23L23.8308 153.631L24.0956 153.842H24.5134C24.6458 153.913 24.7865 153.967 24.9354 154Z" fill="white" fill-opacity="0.21"/>
</svg>
