<svg width="330" height="122" viewBox="0 0 330 122" fill="none" xmlns="http://www.w3.org/2000/svg">
<g clip-path="url(#clip0_370_2605)">
<path fill-rule="evenodd" clip-rule="evenodd" d="M120.011 121.999H113.748L113.589 121.841V109.328L113.748 109.318L120.318 109.16L120.476 109.318V110.571L120.318 110.729H115.318V114.485H119.698V114.643L119.384 115.896L119.226 116.054H115.318V120.44H120.318V120.598L120.16 121.851L120.001 122.009L120.011 121.999ZM199.218 113.545L199.211 113.337C199.211 110.947 201.178 108.982 203.564 108.982L204.059 109.011L204.63 108.972C206.979 108.972 208.91 110.907 208.91 113.258L208.9 113.548V117.304L208.906 117.512C208.906 119.902 206.94 121.868 204.554 121.868L204.059 121.838L203.488 121.877C201.138 121.877 199.208 119.942 199.208 117.591L199.218 117.301V113.545ZM129.063 121.835H127.657L127.499 121.676V109.321L127.657 109.318L131.092 109.16C132.016 109.123 132.937 109.341 133.749 109.783C134.762 110.423 135.356 111.56 135.31 112.754C135.28 114.716 133.676 116.318 131.716 116.351L132.185 116.819L134.376 119.477C134.723 119.912 135.227 120.196 135.782 120.258H135.94V120.417L135.782 121.67L135.623 121.828H135.31C134.28 121.722 133.356 121.142 132.808 120.265L129.997 116.668H129.215V121.673L129.056 121.831L129.063 121.835ZM179.371 121.676H178.121L177.962 121.518L177.966 110.571H174.53L174.372 110.413V109.16L174.53 109.001H183.124V109.16L182.81 110.413V110.571H179.527V121.518L179.368 121.676H179.371ZM102.967 121.676H101.561V110.574L101.564 110.571H98.1288L97.9704 110.413V109.16L98.1288 109.001H106.722V109.16L106.408 110.413L106.25 110.571H103.125V121.518L102.967 121.676ZM144.689 121.521H143.283L143.124 121.363L143.121 109.318L144.527 109.005H144.685L150.622 118.076L151.09 119.015V109.318L151.249 109.16L152.655 109.001H152.813V121.356L152.655 121.515H151.404L151.246 121.356L145.309 112.292L144.84 111.352V121.363L144.682 121.521H144.689ZM217.968 121.521H216.562L216.404 121.363L216.401 109.318L217.807 109.005H217.965L223.902 118.076L224.37 119.015V109.318L224.529 109.16L225.934 109.001H226.093V121.356L225.934 121.515H224.684L224.525 121.356L218.592 112.292L218.123 111.352V121.363L217.965 121.521H217.968ZM83.127 121.521H81.7212L81.5628 121.363V109.318L82.9686 109.005H83.127L89.0637 118.076L89.5323 119.015V109.318L89.6907 109.16L91.0965 109.001H91.2549V121.356L91.0965 121.515H89.8458L89.6874 121.356L83.7507 112.292L83.2821 111.352V121.363L83.1237 121.521H83.127ZM251.876 119.955H257.189V120.113L256.875 121.366L256.717 121.525H250.312L250.153 121.366V109.325L250.308 109.321L251.714 109.008H251.872V119.955H251.876ZM161.41 121.518H159.842V121.36L163.904 109.318L165.624 109.005H165.782L170.161 121.36V121.518H168.755L168.597 121.36L167.66 118.389H162.505L161.568 121.36L161.41 121.518ZM234.689 121.518H233.122V121.36L237.184 109.318L238.903 109.005H239.062L243.441 121.36V121.518H242.035L241.877 121.36L240.94 118.389H235.785L234.848 121.36L234.689 121.518ZM73.5933 121.518H72.1875L72.0291 121.36V109.318H72.1875L73.5933 109.005H73.7517V121.36L73.5933 121.518ZM191.562 121.518H190.156L189.997 121.36V109.318H190.156L191.562 109.005H191.72V121.36L191.562 121.518ZM204.059 120.423L204.405 120.443C206.029 120.443 207.365 119.104 207.365 117.479L207.346 117.133V113.694C207.346 111.89 205.861 110.406 204.062 110.406C202.26 110.406 200.779 111.89 200.779 113.694V117.133L200.769 117.393C200.769 119.058 202.138 120.43 203.805 120.43L204.065 120.42L204.059 120.423ZM167.03 117.139L165.155 111.507L164.997 110.726L164.838 111.507L162.964 117.139H167.026H167.03ZM240.309 117.139L238.435 111.507L238.277 110.726L238.118 111.507L236.244 117.139H240.306H240.309ZM308.59 114.792V115.731H269.996V114.792H308.59ZM22.6545 114.792H61.248V115.731H22.6545V114.792ZM131.092 110.723H129.218V115.26H131.092V115.108C132.498 115.108 133.749 114.64 133.749 112.915C133.749 111.194 132.343 110.723 131.092 110.723ZM329.997 29.8696H319.064V18.4478C319.064 12.506 316.094 10.3133 313.127 10.3133C310.16 10.3133 307.19 12.506 307.19 18.4478V25.3292C307.19 37.6842 330.003 41.908 330.003 57.0789L330 67.561C330 79.4478 323.126 84.608 313.124 84.608C303.28 84.608 296.248 79.1279 296.248 67.561V55.8325H307.184V65.9981C307.184 71.9398 310.154 74.1325 313.121 74.1325C316.087 74.1325 319.057 71.9398 319.057 65.9981V59.2749C319.057 50.204 296.244 42.6961 296.244 27.2153V17.0497C296.244 5.00798 304.059 0.00268555 313.121 0.00268555C323.588 0.00268555 329.997 4.84971 329.997 17.0497V29.8729V29.8696ZM59.2218 66.1531C59.2218 72.0948 62.1918 74.2875 65.1585 74.2875C68.1252 74.2875 71.0952 72.0948 71.0952 66.1531V1.56231H81.8763V67.561C81.8763 79.761 74.0619 84.608 65.1585 84.608C55.9416 84.608 48.2823 79.6027 48.2823 67.561V1.56231H59.2185V66.1531H59.2218ZM260.614 83.2001H249.685V1.56231H267.808C276.088 1.56231 282.81 6.40933 282.81 18.6093V31.7458C282.81 40.0352 280.936 44.7272 274.996 47.3848L284.995 83.3551H274.214V83.1968L264.832 49.571H260.611V83.1968L260.614 83.2001ZM158.905 83.2001V1.56231H177.187C185.467 1.56231 192.03 6.40933 192.03 18.6093V66.1531C192.03 78.3531 185.46 83.2001 177.187 83.2001L158.905 83.1968V83.2001ZM206.56 1.56231H235.778V11.8828H217.5V36.9093H235.155V47.2299H217.5V72.8796H235.782V83.2001H206.564V1.55901L206.56 1.56231ZM19.3743 83.2001H0V1.56231H18.282C26.5617 1.56231 33.1254 6.72258 33.1254 18.6093V28.9299C33.1254 34.41 31.0926 39.0954 25.311 41.2848C31.8813 43.7875 34.2177 48.3246 34.2177 54.4213V66.1498C34.2177 78.0365 27.6474 83.1968 19.3743 83.1968V83.2001ZM107.342 83.2001H96.4062V1.56231H107.342V83.2001ZM145.936 83.2001H122.027V1.56231H132.964V72.8796H145.936V83.2001ZM23.2782 54.7345C23.2782 48.7928 20.3082 46.6001 16.2459 46.6001H10.9362V72.8796H17.5065C21.5688 72.8796 23.4432 70.6869 23.4432 64.7451V54.7345L23.2782 54.7312V54.7345ZM175.151 11.8796H169.676V72.8796H175.151C179.213 72.8796 181.087 70.6869 181.087 64.7451V20.0107C181.087 14.069 179.213 11.8763 175.151 11.8763V11.8796ZM266.082 11.8828H260.608V39.2537H266.082C270.145 39.2537 272.019 37.061 272.019 31.1193V20.0173C272.019 14.0756 270.145 11.8828 266.082 11.8828ZM22.3377 20.0107C22.3377 14.069 20.4633 11.8763 16.401 11.8763H10.9263V36.2796H16.401C20.4633 36.2796 22.3377 34.0868 22.3377 28.1451V20.0074V20.0107Z" fill="white"/>
</g>
<defs>
<clipPath id="clip0_370_2605">
<rect width="330" height="122" fill="white"/>
</clipPath>
</defs>
</svg>
